<svg width="32" height="32" viewBox="0 0 32 32" xmlns="http://www.w3.org/2000/svg" fill="none">
  <defs>
    <radialGradient id="bg" cx="50%" cy="50%" r="50%">
      <stop offset="0%" stop-color="#1e0a3c"/>
      <stop offset="100%" stop-color="#09050f"/>
    </radialGradient>
    <radialGradient id="center" cx="50%" cy="50%" r="50%">
      <stop offset="0%" stop-color="#f0abfc"/>
      <stop offset="45%" stop-color="#a855f7"/>
      <stop offset="100%" stop-color="#a855f7" stop-opacity="0"/>
    </radialGradient>
    <radialGradient id="halo" cx="50%" cy="50%" r="50%">
      <stop offset="0%" stop-color="#a855f7" stop-opacity="0.55"/>
      <stop offset="100%" stop-color="#a855f7" stop-opacity="0"/>
    </radialGradient>
    <linearGradient id="ring" x1="0%" y1="0%" x2="100%" y2="100%">
      <stop offset="0%" stop-color="#a855f7"/>
      <stop offset="50%" stop-color="#22d3ee"/>
      <stop offset="100%" stop-color="#a855f7"/>
    </linearGradient>
    <filter id="glow" x="-60%" y="-60%" width="220%" height="220%">
      <feGaussianBlur stdDeviation="1.8" result="blur"/>
      <feMerge><feMergeNode in="blur"/><feMergeNode in="SourceGraphic"/></feMerge>
    </filter>
    <filter id="ag" x="-40%" y="-40%" width="180%" height="180%">
      <feGaussianBlur stdDeviation="0.8" result="blur"/>
      <feMerge><feMergeNode in="blur"/><feMergeNode in="SourceGraphic"/></feMerge>
    </filter>
  </defs>
  <circle cx="16" cy="16" r="14" fill="url(#halo)"/>
  <circle cx="16" cy="16" r="14.5" fill="url(#bg)"/>
  <circle cx="16" cy="16" r="14.5" stroke="url(#ring)" stroke-width="1.1" opacity="0.85"/>
  <ellipse cx="16" cy="16" rx="9" ry="3.2" stroke="#22d3ee" stroke-width="0.75" opacity="0.50"/>
  <ellipse cx="16" cy="16" rx="3.2" ry="9" stroke="#22d3ee" stroke-width="0.75" opacity="0.40"/>
  <line x1="7" y1="16" x2="25" y2="16" stroke="#22d3ee" stroke-width="0.5" opacity="0.20"/>
  <line x1="16" y1="7" x2="16" y2="25" stroke="#22d3ee" stroke-width="0.5" opacity="0.20"/>
  <path d="M15 5 L16 4 L17 5 L17 13 L16 14.2 L15 13 Z" fill="#a855f7" opacity="0.92" filter="url(#ag)"/>
  <path d="M15 27 L16 28 L17 27 L17 19 L16 17.8 L15 19 Z" fill="#a855f7" opacity="0.92" filter="url(#ag)"/>
  <path d="M5 15 L4 16 L5 17 L13 17 L14.2 16 L13 15 Z" fill="#22d3ee" opacity="0.92" filter="url(#ag)"/>
  <path d="M27 15 L28 16 L27 17 L19 17 L17.8 16 L19 15 Z" fill="#22d3ee" opacity="0.92" filter="url(#ag)"/>
  <circle cx="16" cy="16" r="3.8" fill="url(#center)" filter="url(#glow)"/>
  <circle cx="16" cy="16" r="1.6" fill="white" opacity="0.96"/>
</svg>
